<mxfile host="app.diagrams.net" agent="Mozilla/5.0 (Macintosh; Intel Mac OS X 10_15_7) AppleWebKit/537.36 (KHTML, like Gecko) Chrome/129.0.0.0 Safari/537.36" version="24.7.8">
  <diagram name="Page-1" id="JUiJTz4QVHb5tbWXsS_-">
    <mxGraphModel dx="1193" dy="769" grid="1" gridSize="10" guides="1" tooltips="1" connect="1" arrows="1" fold="1" page="1" pageScale="1" pageWidth="827" pageHeight="1169" math="0" shadow="0">
      <root>
        <mxCell id="0" />
        <mxCell id="1" parent="0" />
        <mxCell id="2WDCpD30VYiqiOwWDSLP-6" style="edgeStyle=orthogonalEdgeStyle;rounded=0;orthogonalLoop=1;jettySize=auto;html=1;entryX=0;entryY=0.5;entryDx=0;entryDy=0;" edge="1" parent="1" source="2WDCpD30VYiqiOwWDSLP-1" target="2WDCpD30VYiqiOwWDSLP-2">
          <mxGeometry relative="1" as="geometry" />
        </mxCell>
        <mxCell id="2WDCpD30VYiqiOwWDSLP-1" value="SwiftUI" style="rounded=0;whiteSpace=wrap;html=1;" vertex="1" parent="1">
          <mxGeometry x="110" y="100" width="140" height="130" as="geometry" />
        </mxCell>
        <mxCell id="2WDCpD30VYiqiOwWDSLP-7" style="edgeStyle=orthogonalEdgeStyle;rounded=0;orthogonalLoop=1;jettySize=auto;html=1;entryX=0;entryY=0.5;entryDx=0;entryDy=0;" edge="1" parent="1" source="2WDCpD30VYiqiOwWDSLP-2" target="2WDCpD30VYiqiOwWDSLP-3">
          <mxGeometry relative="1" as="geometry" />
        </mxCell>
        <mxCell id="2WDCpD30VYiqiOwWDSLP-8" style="edgeStyle=orthogonalEdgeStyle;rounded=0;orthogonalLoop=1;jettySize=auto;html=1;entryX=0;entryY=0.5;entryDx=0;entryDy=0;" edge="1" parent="1" source="2WDCpD30VYiqiOwWDSLP-2" target="2WDCpD30VYiqiOwWDSLP-4">
          <mxGeometry relative="1" as="geometry" />
        </mxCell>
        <mxCell id="2WDCpD30VYiqiOwWDSLP-19" style="edgeStyle=orthogonalEdgeStyle;rounded=0;orthogonalLoop=1;jettySize=auto;html=1;entryX=0.5;entryY=1;entryDx=0;entryDy=0;dashed=1;" edge="1" parent="1" source="2WDCpD30VYiqiOwWDSLP-2" target="2WDCpD30VYiqiOwWDSLP-1">
          <mxGeometry relative="1" as="geometry" />
        </mxCell>
        <mxCell id="2WDCpD30VYiqiOwWDSLP-2" value="ViewModel" style="rounded=1;whiteSpace=wrap;html=1;" vertex="1" parent="1">
          <mxGeometry x="354" y="135" width="120" height="60" as="geometry" />
        </mxCell>
        <mxCell id="2WDCpD30VYiqiOwWDSLP-9" style="edgeStyle=orthogonalEdgeStyle;rounded=0;orthogonalLoop=1;jettySize=auto;html=1;entryX=0;entryY=0.5;entryDx=0;entryDy=0;" edge="1" parent="1" source="2WDCpD30VYiqiOwWDSLP-3" target="2WDCpD30VYiqiOwWDSLP-5">
          <mxGeometry relative="1" as="geometry" />
        </mxCell>
        <mxCell id="2WDCpD30VYiqiOwWDSLP-14" style="edgeStyle=orthogonalEdgeStyle;rounded=0;orthogonalLoop=1;jettySize=auto;html=1;entryX=1;entryY=0.5;entryDx=0;entryDy=0;" edge="1" parent="1" source="2WDCpD30VYiqiOwWDSLP-3" target="2WDCpD30VYiqiOwWDSLP-2">
          <mxGeometry relative="1" as="geometry" />
        </mxCell>
        <mxCell id="2WDCpD30VYiqiOwWDSLP-3" value="Task Service" style="rounded=1;whiteSpace=wrap;html=1;" vertex="1" parent="1">
          <mxGeometry x="550" y="100" width="120" height="60" as="geometry" />
        </mxCell>
        <mxCell id="2WDCpD30VYiqiOwWDSLP-10" style="edgeStyle=orthogonalEdgeStyle;rounded=0;orthogonalLoop=1;jettySize=auto;html=1;entryX=0;entryY=0.5;entryDx=0;entryDy=0;" edge="1" parent="1" source="2WDCpD30VYiqiOwWDSLP-4" target="2WDCpD30VYiqiOwWDSLP-5">
          <mxGeometry relative="1" as="geometry" />
        </mxCell>
        <mxCell id="2WDCpD30VYiqiOwWDSLP-13" style="edgeStyle=orthogonalEdgeStyle;rounded=0;orthogonalLoop=1;jettySize=auto;html=1;entryX=1;entryY=0.5;entryDx=0;entryDy=0;" edge="1" parent="1" source="2WDCpD30VYiqiOwWDSLP-4" target="2WDCpD30VYiqiOwWDSLP-2">
          <mxGeometry relative="1" as="geometry" />
        </mxCell>
        <mxCell id="2WDCpD30VYiqiOwWDSLP-4" value="Task List Service" style="rounded=1;whiteSpace=wrap;html=1;" vertex="1" parent="1">
          <mxGeometry x="550" y="210" width="120" height="60" as="geometry" />
        </mxCell>
        <mxCell id="2WDCpD30VYiqiOwWDSLP-11" style="edgeStyle=orthogonalEdgeStyle;rounded=0;orthogonalLoop=1;jettySize=auto;html=1;entryX=1;entryY=0.5;entryDx=0;entryDy=0;" edge="1" parent="1" source="2WDCpD30VYiqiOwWDSLP-5" target="2WDCpD30VYiqiOwWDSLP-3">
          <mxGeometry relative="1" as="geometry" />
        </mxCell>
        <mxCell id="2WDCpD30VYiqiOwWDSLP-12" style="edgeStyle=orthogonalEdgeStyle;rounded=0;orthogonalLoop=1;jettySize=auto;html=1;" edge="1" parent="1" source="2WDCpD30VYiqiOwWDSLP-5" target="2WDCpD30VYiqiOwWDSLP-4">
          <mxGeometry relative="1" as="geometry" />
        </mxCell>
        <mxCell id="2WDCpD30VYiqiOwWDSLP-21" style="edgeStyle=orthogonalEdgeStyle;rounded=0;orthogonalLoop=1;jettySize=auto;html=1;entryX=0.5;entryY=0;entryDx=0;entryDy=0;" edge="1" parent="1" source="2WDCpD30VYiqiOwWDSLP-5" target="2WDCpD30VYiqiOwWDSLP-20">
          <mxGeometry relative="1" as="geometry" />
        </mxCell>
        <mxCell id="2WDCpD30VYiqiOwWDSLP-5" value="Repository Service" style="rounded=0;whiteSpace=wrap;html=1;" vertex="1" parent="1">
          <mxGeometry x="760" y="160" width="120" height="60" as="geometry" />
        </mxCell>
        <mxCell id="2WDCpD30VYiqiOwWDSLP-15" value="DI" style="ellipse;whiteSpace=wrap;html=1;" vertex="1" parent="1">
          <mxGeometry x="420" y="40" width="120" height="80" as="geometry" />
        </mxCell>
        <mxCell id="2WDCpD30VYiqiOwWDSLP-16" value="Database" style="rounded=0;whiteSpace=wrap;html=1;" vertex="1" parent="1">
          <mxGeometry x="920" y="280" width="120" height="60" as="geometry" />
        </mxCell>
        <mxCell id="2WDCpD30VYiqiOwWDSLP-22" style="edgeStyle=orthogonalEdgeStyle;rounded=0;orthogonalLoop=1;jettySize=auto;html=1;entryX=0;entryY=0.5;entryDx=0;entryDy=0;" edge="1" parent="1" source="2WDCpD30VYiqiOwWDSLP-20" target="2WDCpD30VYiqiOwWDSLP-16">
          <mxGeometry relative="1" as="geometry" />
        </mxCell>
        <mxCell id="2WDCpD30VYiqiOwWDSLP-20" value="Storage" style="rounded=0;whiteSpace=wrap;html=1;" vertex="1" parent="1">
          <mxGeometry x="760" y="280" width="120" height="60" as="geometry" />
        </mxCell>
        <mxCell id="2WDCpD30VYiqiOwWDSLP-126" style="edgeStyle=orthogonalEdgeStyle;rounded=0;orthogonalLoop=1;jettySize=auto;html=1;" edge="1" parent="1" source="2WDCpD30VYiqiOwWDSLP-93" target="2WDCpD30VYiqiOwWDSLP-109">
          <mxGeometry relative="1" as="geometry" />
        </mxCell>
        <mxCell id="2WDCpD30VYiqiOwWDSLP-93" value="Priority" style="swimlane;fontStyle=0;childLayout=stackLayout;horizontal=1;startSize=30;horizontalStack=0;resizeParent=1;resizeParentMax=0;resizeLast=0;collapsible=1;marginBottom=0;whiteSpace=wrap;html=1;fillColor=#fff2cc;strokeColor=#d6b656;" vertex="1" parent="1">
          <mxGeometry x="810" y="690" width="140" height="120" as="geometry" />
        </mxCell>
        <mxCell id="2WDCpD30VYiqiOwWDSLP-94" value="Low" style="text;strokeColor=none;fillColor=none;align=left;verticalAlign=middle;spacingLeft=4;spacingRight=4;overflow=hidden;points=[[0,0.5],[1,0.5]];portConstraint=eastwest;rotatable=0;whiteSpace=wrap;html=1;" vertex="1" parent="2WDCpD30VYiqiOwWDSLP-93">
          <mxGeometry y="30" width="140" height="30" as="geometry" />
        </mxCell>
        <mxCell id="2WDCpD30VYiqiOwWDSLP-95" value="Medium" style="text;strokeColor=none;fillColor=none;align=left;verticalAlign=middle;spacingLeft=4;spacingRight=4;overflow=hidden;points=[[0,0.5],[1,0.5]];portConstraint=eastwest;rotatable=0;whiteSpace=wrap;html=1;" vertex="1" parent="2WDCpD30VYiqiOwWDSLP-93">
          <mxGeometry y="60" width="140" height="30" as="geometry" />
        </mxCell>
        <mxCell id="2WDCpD30VYiqiOwWDSLP-96" value="High" style="text;strokeColor=none;fillColor=none;align=left;verticalAlign=middle;spacingLeft=4;spacingRight=4;overflow=hidden;points=[[0,0.5],[1,0.5]];portConstraint=eastwest;rotatable=0;whiteSpace=wrap;html=1;" vertex="1" parent="2WDCpD30VYiqiOwWDSLP-93">
          <mxGeometry y="90" width="140" height="30" as="geometry" />
        </mxCell>
        <mxCell id="2WDCpD30VYiqiOwWDSLP-97" value="Repeat Type" style="swimlane;fontStyle=0;childLayout=stackLayout;horizontal=1;startSize=30;horizontalStack=0;resizeParent=1;resizeParentMax=0;resizeLast=0;collapsible=1;marginBottom=0;whiteSpace=wrap;html=1;fillColor=#fff2cc;strokeColor=#d6b656;" vertex="1" parent="1">
          <mxGeometry x="820" y="910" width="140" height="180" as="geometry" />
        </mxCell>
        <mxCell id="2WDCpD30VYiqiOwWDSLP-98" value="Daily" style="text;strokeColor=none;fillColor=none;align=left;verticalAlign=middle;spacingLeft=4;spacingRight=4;overflow=hidden;points=[[0,0.5],[1,0.5]];portConstraint=eastwest;rotatable=0;whiteSpace=wrap;html=1;" vertex="1" parent="2WDCpD30VYiqiOwWDSLP-97">
          <mxGeometry y="30" width="140" height="30" as="geometry" />
        </mxCell>
        <mxCell id="2WDCpD30VYiqiOwWDSLP-99" value="Weekly" style="text;strokeColor=none;fillColor=none;align=left;verticalAlign=middle;spacingLeft=4;spacingRight=4;overflow=hidden;points=[[0,0.5],[1,0.5]];portConstraint=eastwest;rotatable=0;whiteSpace=wrap;html=1;" vertex="1" parent="2WDCpD30VYiqiOwWDSLP-97">
          <mxGeometry y="60" width="140" height="30" as="geometry" />
        </mxCell>
        <mxCell id="2WDCpD30VYiqiOwWDSLP-101" value="Monthly&lt;span style=&quot;color: rgba(0, 0, 0, 0); font-family: monospace; font-size: 0px; text-wrap: nowrap;&quot;&gt;%3CmxGraphModel%3E%3Croot%3E%3CmxCell%20id%3D%220%22%2F%3E%3CmxCell%20id%3D%221%22%20parent%3D%220%22%2F%3E%3CmxCell%20id%3D%222%22%20value%3D%22Priority%22%20style%3D%22swimlane%3BfontStyle%3D0%3BchildLayout%3DstackLayout%3Bhorizontal%3D1%3BstartSize%3D30%3BhorizontalStack%3D0%3BresizeParent%3D1%3BresizeParentMax%3D0%3BresizeLast%3D0%3Bcollapsible%3D1%3BmarginBottom%3D0%3BwhiteSpace%3Dwrap%3Bhtml%3D1%3BfillColor%3D%23fff2cc%3BstrokeColor%3D%23d6b656%3B%22%20vertex%3D%221%22%20parent%3D%221%22%3E%3CmxGeometry%20x%3D%22670%22%20y%3D%22520%22%20width%3D%22140%22%20height%3D%22120%22%20as%3D%22geometry%22%2F%3E%3C%2FmxCell%3E%3CmxCell%20id%3D%223%22%20value%3D%22Low%22%20style%3D%22text%3BstrokeColor%3Dnone%3BfillColor%3Dnone%3Balign%3Dleft%3BverticalAlign%3Dmiddle%3BspacingLeft%3D4%3BspacingRight%3D4%3Boverflow%3Dhidden%3Bpoints%3D%5B%5B0%2C0.5%5D%2C%5B1%2C0.5%5D%5D%3BportConstraint%3Deastwest%3Brotatable%3D0%3BwhiteSpace%3Dwrap%3Bhtml%3D1%3B%22%20vertex%3D%221%22%20parent%3D%222%22%3E%3CmxGeometry%20y%3D%2230%22%20width%3D%22140%22%20height%3D%2230%22%20as%3D%22geometry%22%2F%3E%3C%2FmxCell%3E%3CmxCell%20id%3D%224%22%20value%3D%22Medium%22%20style%3D%22text%3BstrokeColor%3Dnone%3BfillColor%3Dnone%3Balign%3Dleft%3BverticalAlign%3Dmiddle%3BspacingLeft%3D4%3BspacingRight%3D4%3Boverflow%3Dhidden%3Bpoints%3D%5B%5B0%2C0.5%5D%2C%5B1%2C0.5%5D%5D%3BportConstraint%3Deastwest%3Brotatable%3D0%3BwhiteSpace%3Dwrap%3Bhtml%3D1%3B%22%20vertex%3D%221%22%20parent%3D%222%22%3E%3CmxGeometry%20y%3D%2260%22%20width%3D%22140%22%20height%3D%2230%22%20as%3D%22geometry%22%2F%3E%3C%2FmxCell%3E%3CmxCell%20id%3D%225%22%20value%3D%22High%22%20style%3D%22text%3BstrokeColor%3Dnone%3BfillColor%3Dnone%3Balign%3Dleft%3BverticalAlign%3Dmiddle%3BspacingLeft%3D4%3BspacingRight%3D4%3Boverflow%3Dhidden%3Bpoints%3D%5B%5B0%2C0.5%5D%2C%5B1%2C0.5%5D%5D%3BportConstraint%3Deastwest%3Brotatable%3D0%3BwhiteSpace%3Dwrap%3Bhtml%3D1%3B%22%20vertex%3D%221%22%20parent%3D%222%22%3E%3CmxGeometry%20y%3D%2290%22%20width%3D%22140%22%20height%3D%2230%22%20as%3D%22geometry%22%2F%3E%3C%2FmxCell%3E%3C%2Froot%3E%3C%2FmxGraphModel%3E&lt;/span&gt;" style="text;strokeColor=none;fillColor=none;align=left;verticalAlign=middle;spacingLeft=4;spacingRight=4;overflow=hidden;points=[[0,0.5],[1,0.5]];portConstraint=eastwest;rotatable=0;whiteSpace=wrap;html=1;" vertex="1" parent="2WDCpD30VYiqiOwWDSLP-97">
          <mxGeometry y="90" width="140" height="30" as="geometry" />
        </mxCell>
        <mxCell id="2WDCpD30VYiqiOwWDSLP-102" value="Yearly" style="text;strokeColor=none;fillColor=none;align=left;verticalAlign=middle;spacingLeft=4;spacingRight=4;overflow=hidden;points=[[0,0.5],[1,0.5]];portConstraint=eastwest;rotatable=0;whiteSpace=wrap;html=1;" vertex="1" parent="2WDCpD30VYiqiOwWDSLP-97">
          <mxGeometry y="120" width="140" height="30" as="geometry" />
        </mxCell>
        <mxCell id="2WDCpD30VYiqiOwWDSLP-100" value="Custom" style="text;strokeColor=none;fillColor=none;align=left;verticalAlign=middle;spacingLeft=4;spacingRight=4;overflow=hidden;points=[[0,0.5],[1,0.5]];portConstraint=eastwest;rotatable=0;whiteSpace=wrap;html=1;" vertex="1" parent="2WDCpD30VYiqiOwWDSLP-97">
          <mxGeometry y="150" width="140" height="30" as="geometry" />
        </mxCell>
        <mxCell id="2WDCpD30VYiqiOwWDSLP-103" value="Task List" style="swimlane;fontStyle=0;childLayout=stackLayout;horizontal=1;startSize=30;horizontalStack=0;resizeParent=1;resizeParentMax=0;resizeLast=0;collapsible=1;marginBottom=0;whiteSpace=wrap;html=1;fillColor=#dae8fc;strokeColor=#6c8ebf;" vertex="1" parent="1">
          <mxGeometry x="180" y="710" width="140" height="90" as="geometry" />
        </mxCell>
        <mxCell id="2WDCpD30VYiqiOwWDSLP-104" value="id" style="text;strokeColor=none;fillColor=none;align=left;verticalAlign=middle;spacingLeft=4;spacingRight=4;overflow=hidden;points=[[0,0.5],[1,0.5]];portConstraint=eastwest;rotatable=0;whiteSpace=wrap;html=1;" vertex="1" parent="2WDCpD30VYiqiOwWDSLP-103">
          <mxGeometry y="30" width="140" height="30" as="geometry" />
        </mxCell>
        <mxCell id="2WDCpD30VYiqiOwWDSLP-105" value="name" style="text;strokeColor=none;fillColor=none;align=left;verticalAlign=middle;spacingLeft=4;spacingRight=4;overflow=hidden;points=[[0,0.5],[1,0.5]];portConstraint=eastwest;rotatable=0;whiteSpace=wrap;html=1;" vertex="1" parent="2WDCpD30VYiqiOwWDSLP-103">
          <mxGeometry y="60" width="140" height="30" as="geometry" />
        </mxCell>
        <mxCell id="2WDCpD30VYiqiOwWDSLP-107" value="Task" style="swimlane;fontStyle=0;childLayout=stackLayout;horizontal=1;startSize=30;horizontalStack=0;resizeParent=1;resizeParentMax=0;resizeLast=0;collapsible=1;marginBottom=0;whiteSpace=wrap;html=1;fillColor=#dae8fc;strokeColor=#6c8ebf;" vertex="1" parent="1">
          <mxGeometry x="420" y="670" width="140" height="390" as="geometry" />
        </mxCell>
        <mxCell id="2WDCpD30VYiqiOwWDSLP-108" value="id" style="text;strokeColor=none;fillColor=none;align=left;verticalAlign=middle;spacingLeft=4;spacingRight=4;overflow=hidden;points=[[0,0.5],[1,0.5]];portConstraint=eastwest;rotatable=0;whiteSpace=wrap;html=1;" vertex="1" parent="2WDCpD30VYiqiOwWDSLP-107">
          <mxGeometry y="30" width="140" height="30" as="geometry" />
        </mxCell>
        <mxCell id="2WDCpD30VYiqiOwWDSLP-110" value="title" style="text;strokeColor=none;fillColor=none;align=left;verticalAlign=middle;spacingLeft=4;spacingRight=4;overflow=hidden;points=[[0,0.5],[1,0.5]];portConstraint=eastwest;rotatable=0;whiteSpace=wrap;html=1;" vertex="1" parent="2WDCpD30VYiqiOwWDSLP-107">
          <mxGeometry y="60" width="140" height="30" as="geometry" />
        </mxCell>
        <mxCell id="2WDCpD30VYiqiOwWDSLP-111" value="description" style="text;strokeColor=none;fillColor=none;align=left;verticalAlign=middle;spacingLeft=4;spacingRight=4;overflow=hidden;points=[[0,0.5],[1,0.5]];portConstraint=eastwest;rotatable=0;whiteSpace=wrap;html=1;" vertex="1" parent="2WDCpD30VYiqiOwWDSLP-107">
          <mxGeometry y="90" width="140" height="30" as="geometry" />
        </mxCell>
        <mxCell id="2WDCpD30VYiqiOwWDSLP-112" value="task_list_id" style="text;strokeColor=none;fillColor=none;align=left;verticalAlign=middle;spacingLeft=4;spacingRight=4;overflow=hidden;points=[[0,0.5],[1,0.5]];portConstraint=eastwest;rotatable=0;whiteSpace=wrap;html=1;" vertex="1" parent="2WDCpD30VYiqiOwWDSLP-107">
          <mxGeometry y="120" width="140" height="30" as="geometry" />
        </mxCell>
        <mxCell id="2WDCpD30VYiqiOwWDSLP-119" value="status" style="text;strokeColor=none;fillColor=none;align=left;verticalAlign=middle;spacingLeft=4;spacingRight=4;overflow=hidden;points=[[0,0.5],[1,0.5]];portConstraint=eastwest;rotatable=0;whiteSpace=wrap;html=1;" vertex="1" parent="2WDCpD30VYiqiOwWDSLP-107">
          <mxGeometry y="150" width="140" height="30" as="geometry" />
        </mxCell>
        <mxCell id="2WDCpD30VYiqiOwWDSLP-109" value="priority" style="text;strokeColor=none;fillColor=none;align=left;verticalAlign=middle;spacingLeft=4;spacingRight=4;overflow=hidden;points=[[0,0.5],[1,0.5]];portConstraint=eastwest;rotatable=0;whiteSpace=wrap;html=1;" vertex="1" parent="2WDCpD30VYiqiOwWDSLP-107">
          <mxGeometry y="180" width="140" height="30" as="geometry" />
        </mxCell>
        <mxCell id="2WDCpD30VYiqiOwWDSLP-120" value="repeat_type" style="text;strokeColor=none;fillColor=none;align=left;verticalAlign=middle;spacingLeft=4;spacingRight=4;overflow=hidden;points=[[0,0.5],[1,0.5]];portConstraint=eastwest;rotatable=0;whiteSpace=wrap;html=1;" vertex="1" parent="2WDCpD30VYiqiOwWDSLP-107">
          <mxGeometry y="210" width="140" height="30" as="geometry" />
        </mxCell>
        <mxCell id="2WDCpD30VYiqiOwWDSLP-124" value="is_repeat" style="text;strokeColor=none;fillColor=none;align=left;verticalAlign=middle;spacingLeft=4;spacingRight=4;overflow=hidden;points=[[0,0.5],[1,0.5]];portConstraint=eastwest;rotatable=0;whiteSpace=wrap;html=1;" vertex="1" parent="2WDCpD30VYiqiOwWDSLP-107">
          <mxGeometry y="240" width="140" height="30" as="geometry" />
        </mxCell>
        <mxCell id="2WDCpD30VYiqiOwWDSLP-122" value="start_date" style="text;strokeColor=none;fillColor=none;align=left;verticalAlign=middle;spacingLeft=4;spacingRight=4;overflow=hidden;points=[[0,0.5],[1,0.5]];portConstraint=eastwest;rotatable=0;whiteSpace=wrap;html=1;" vertex="1" parent="2WDCpD30VYiqiOwWDSLP-107">
          <mxGeometry y="270" width="140" height="30" as="geometry" />
        </mxCell>
        <mxCell id="2WDCpD30VYiqiOwWDSLP-121" value="due_date" style="text;strokeColor=none;fillColor=none;align=left;verticalAlign=middle;spacingLeft=4;spacingRight=4;overflow=hidden;points=[[0,0.5],[1,0.5]];portConstraint=eastwest;rotatable=0;whiteSpace=wrap;html=1;" vertex="1" parent="2WDCpD30VYiqiOwWDSLP-107">
          <mxGeometry y="300" width="140" height="30" as="geometry" />
        </mxCell>
        <mxCell id="2WDCpD30VYiqiOwWDSLP-123" value="time" style="text;strokeColor=none;fillColor=none;align=left;verticalAlign=middle;spacingLeft=4;spacingRight=4;overflow=hidden;points=[[0,0.5],[1,0.5]];portConstraint=eastwest;rotatable=0;whiteSpace=wrap;html=1;" vertex="1" parent="2WDCpD30VYiqiOwWDSLP-107">
          <mxGeometry y="330" width="140" height="30" as="geometry" />
        </mxCell>
        <mxCell id="2WDCpD30VYiqiOwWDSLP-125" value="repeat_interval" style="text;strokeColor=none;fillColor=none;align=left;verticalAlign=middle;spacingLeft=4;spacingRight=4;overflow=hidden;points=[[0,0.5],[1,0.5]];portConstraint=eastwest;rotatable=0;whiteSpace=wrap;html=1;" vertex="1" parent="2WDCpD30VYiqiOwWDSLP-107">
          <mxGeometry y="360" width="140" height="30" as="geometry" />
        </mxCell>
        <mxCell id="2WDCpD30VYiqiOwWDSLP-128" style="edgeStyle=orthogonalEdgeStyle;rounded=0;orthogonalLoop=1;jettySize=auto;html=1;" edge="1" parent="1" source="2WDCpD30VYiqiOwWDSLP-113" target="2WDCpD30VYiqiOwWDSLP-119">
          <mxGeometry relative="1" as="geometry" />
        </mxCell>
        <mxCell id="2WDCpD30VYiqiOwWDSLP-113" value="Status" style="swimlane;fontStyle=0;childLayout=stackLayout;horizontal=1;startSize=30;horizontalStack=0;resizeParent=1;resizeParentMax=0;resizeLast=0;collapsible=1;marginBottom=0;whiteSpace=wrap;html=1;fillColor=#fff2cc;strokeColor=#d6b656;" vertex="1" parent="1">
          <mxGeometry x="650" y="690" width="140" height="120" as="geometry" />
        </mxCell>
        <mxCell id="2WDCpD30VYiqiOwWDSLP-114" value="ToDo" style="text;strokeColor=none;fillColor=none;align=left;verticalAlign=middle;spacingLeft=4;spacingRight=4;overflow=hidden;points=[[0,0.5],[1,0.5]];portConstraint=eastwest;rotatable=0;whiteSpace=wrap;html=1;" vertex="1" parent="2WDCpD30VYiqiOwWDSLP-113">
          <mxGeometry y="30" width="140" height="30" as="geometry" />
        </mxCell>
        <mxCell id="2WDCpD30VYiqiOwWDSLP-115" value="InProgress" style="text;strokeColor=none;fillColor=none;align=left;verticalAlign=middle;spacingLeft=4;spacingRight=4;overflow=hidden;points=[[0,0.5],[1,0.5]];portConstraint=eastwest;rotatable=0;whiteSpace=wrap;html=1;" vertex="1" parent="2WDCpD30VYiqiOwWDSLP-113">
          <mxGeometry y="60" width="140" height="30" as="geometry" />
        </mxCell>
        <mxCell id="2WDCpD30VYiqiOwWDSLP-117" value="Completed" style="text;strokeColor=none;fillColor=none;align=left;verticalAlign=middle;spacingLeft=4;spacingRight=4;overflow=hidden;points=[[0,0.5],[1,0.5]];portConstraint=eastwest;rotatable=0;whiteSpace=wrap;html=1;" vertex="1" parent="2WDCpD30VYiqiOwWDSLP-113">
          <mxGeometry y="90" width="140" height="30" as="geometry" />
        </mxCell>
        <mxCell id="2WDCpD30VYiqiOwWDSLP-118" style="edgeStyle=orthogonalEdgeStyle;rounded=0;orthogonalLoop=1;jettySize=auto;html=1;entryX=0;entryY=0.5;entryDx=0;entryDy=0;" edge="1" parent="1" source="2WDCpD30VYiqiOwWDSLP-104" target="2WDCpD30VYiqiOwWDSLP-112">
          <mxGeometry relative="1" as="geometry" />
        </mxCell>
        <mxCell id="2WDCpD30VYiqiOwWDSLP-127" style="edgeStyle=orthogonalEdgeStyle;rounded=0;orthogonalLoop=1;jettySize=auto;html=1;" edge="1" parent="1" source="2WDCpD30VYiqiOwWDSLP-99" target="2WDCpD30VYiqiOwWDSLP-120">
          <mxGeometry relative="1" as="geometry" />
        </mxCell>
        <mxCell id="2WDCpD30VYiqiOwWDSLP-129" value="Repeat Interval" style="swimlane;fontStyle=0;childLayout=stackLayout;horizontal=1;startSize=30;horizontalStack=0;resizeParent=1;resizeParentMax=0;resizeLast=0;collapsible=1;marginBottom=0;whiteSpace=wrap;html=1;fillColor=#dae8fc;strokeColor=#6c8ebf;" vertex="1" parent="1">
          <mxGeometry x="610" y="1060" width="140" height="120" as="geometry" />
        </mxCell>
        <mxCell id="2WDCpD30VYiqiOwWDSLP-130" value="interval_days" style="text;strokeColor=none;fillColor=none;align=left;verticalAlign=middle;spacingLeft=4;spacingRight=4;overflow=hidden;points=[[0,0.5],[1,0.5]];portConstraint=eastwest;rotatable=0;whiteSpace=wrap;html=1;" vertex="1" parent="2WDCpD30VYiqiOwWDSLP-129">
          <mxGeometry y="30" width="140" height="30" as="geometry" />
        </mxCell>
        <mxCell id="2WDCpD30VYiqiOwWDSLP-131" value="repeat_type" style="text;strokeColor=none;fillColor=none;align=left;verticalAlign=middle;spacingLeft=4;spacingRight=4;overflow=hidden;points=[[0,0.5],[1,0.5]];portConstraint=eastwest;rotatable=0;whiteSpace=wrap;html=1;" vertex="1" parent="2WDCpD30VYiqiOwWDSLP-129">
          <mxGeometry y="60" width="140" height="30" as="geometry" />
        </mxCell>
        <mxCell id="2WDCpD30VYiqiOwWDSLP-133" value="days" style="text;strokeColor=none;fillColor=none;align=left;verticalAlign=middle;spacingLeft=4;spacingRight=4;overflow=hidden;points=[[0,0.5],[1,0.5]];portConstraint=eastwest;rotatable=0;whiteSpace=wrap;html=1;" vertex="1" parent="2WDCpD30VYiqiOwWDSLP-129">
          <mxGeometry y="90" width="140" height="30" as="geometry" />
        </mxCell>
        <mxCell id="2WDCpD30VYiqiOwWDSLP-134" style="edgeStyle=orthogonalEdgeStyle;rounded=0;orthogonalLoop=1;jettySize=auto;html=1;" edge="1" parent="1" source="2WDCpD30VYiqiOwWDSLP-131" target="2WDCpD30VYiqiOwWDSLP-125">
          <mxGeometry relative="1" as="geometry" />
        </mxCell>
        <mxCell id="2WDCpD30VYiqiOwWDSLP-136" style="edgeStyle=orthogonalEdgeStyle;rounded=0;orthogonalLoop=1;jettySize=auto;html=1;" edge="1" parent="1" source="2WDCpD30VYiqiOwWDSLP-99" target="2WDCpD30VYiqiOwWDSLP-131">
          <mxGeometry relative="1" as="geometry" />
        </mxCell>
      </root>
    </mxGraphModel>
  </diagram>
</mxfile>
